<svg width="512" height="512" viewBox="0 0 512 512" fill="none" xmlns="http://www.w3.org/2000/svg">
<g clip-path="url(#clip0)">
<path d="M272.299 124.355C248.747 138.834 235.922 163.581 239.636 192.52C194.569 185.958 156.567 164.399 126.483 128.26L126.482 128.26L116.827 116.663L115.884 115.531L115.18 116.824L107.965 130.074C107.965 130.074 107.965 130.074 107.965 130.074C98.7382 147.015 95.6675 166.396 99.3338 184.652L100.314 184.455L99.3338 184.652C100.663 191.27 102.815 197.618 105.742 203.62L99.8958 201.355L98.6329 200.865L98.537 202.216L97.5543 216.056L97.5543 216.057C96.5406 230.365 101.299 246.991 110.24 260.574C112.328 263.746 114.914 267.177 118.079 270.62L116.701 270.408L115.09 270.161L115.6 271.71L120.823 287.569L120.823 287.569C127.528 307.92 141.212 323.844 159.016 333.095C141.479 340.445 126.789 345.364 103.139 353.143C103.139 353.143 103.139 353.143 103.139 353.143L80.6877 360.524L78.4958 361.244L80.5203 362.351L101.258 373.689C109.179 378.021 137.247 392.533 165.034 396.892L165.189 395.904L165.034 396.892C226.54 406.538 295.991 398.721 342.821 356.545C382.295 320.994 395.19 270.465 392.51 218.052C392.118 210.355 394.228 203.045 398.411 197.458C407.097 185.862 431.757 152.049 431.823 151.954L431 151.386L430.954 150.387C422.513 150.776 417.377 151.004 414.11 151.149C410.776 151.297 409.389 151.358 408.423 151.417L420.958 115.62L421.659 113.619L419.669 114.351L420.014 115.289C419.669 114.351 419.669 114.351 419.669 114.351L419.667 114.351L419.662 114.353L419.64 114.361L419.552 114.394L419.21 114.519C418.91 114.629 418.468 114.791 417.902 114.999C416.769 115.413 415.14 116.008 413.152 116.731C409.177 118.176 403.769 120.13 398.039 122.168C386.924 126.121 374.665 130.365 369.26 131.835C341.806 107.506 301.293 106.535 272.299 124.355L272.822 125.205L272.299 124.355ZM380.412 183.975L380.412 183.976C373.062 193.79 369.393 206.304 370.051 219.201L371.049 219.15L370.051 219.201C372.734 271.669 358.459 312.198 327.773 339.833C291.896 372.145 233.891 384.928 168.519 374.673L168.364 375.661L168.519 374.673C157.699 372.977 146.519 369.341 136.92 365.54C156.333 358.791 171.985 352.497 196.616 340.839L232.435 323.885L235.931 322.231L232.071 321.984L192.524 319.452C174.495 318.298 159.423 309.82 149.843 296.029C154.447 295.652 158.919 294.846 163.372 293.605L201.089 283.1L204.771 282.075L201.059 281.165L163.026 271.852C144.852 267.4 134.509 256.538 129.025 248.209C125.802 243.31 123.579 238.306 122.136 233.606C125.659 234.431 129.853 235.059 136.021 235.67L136.022 235.67L171.224 239.152L174.66 239.492L171.938 237.369L144.046 215.611L144.046 215.611C124.762 200.57 116.775 178.221 121.727 156.529C152.89 188.317 186.606 203.131 213.559 210.197C227.215 213.776 239.132 215.367 248.098 216.17C252.499 216.565 256.189 216.769 259.015 216.926L259.17 216.935C260.596 217.014 261.786 217.081 262.734 217.154C263.699 217.229 264.352 217.307 264.733 217.395L266.097 217.712L265.954 216.319C264.331 200.562 264.278 200.372 263.822 198.762L263.82 198.755C259.145 182.231 261.941 169.857 266.997 160.916C272.07 151.941 279.465 146.349 284.076 143.514C303.377 131.652 333.982 129.901 355.135 149.382L355.135 149.382C360.024 153.881 366.659 155.67 372.893 154.122L372.651 153.151L372.893 154.122C377.406 153 381.233 151.823 384.896 150.563L376.738 173.857L376.273 175.187L377.682 175.188L386.98 175.194C385.105 177.707 382.933 180.612 380.412 183.975Z" fill="white" stroke="white" stroke-width="2"/>
</g>
<rect x="15" y="15" width="482" height="482" rx="55" stroke="white" stroke-width="30"/>
<defs>
<clipPath id="clip0">
<rect width="350" height="350" fill="white" transform="translate(81 81)"/>
</clipPath>
</defs>
</svg>
