<svg width="42" height="42" viewBox="0 0 42 42" fill="none" xmlns="http://www.w3.org/2000/svg">
<g clip-path="url(#clip0)">
<path d="M40.4285 18.5336L20.9888 37.9751L1.54907 18.5336C1.18641 18.1832 0.608392 18.1933 0.258055 18.556C-0.0836367 18.9099 -0.0836367 19.4707 0.258055 19.8245L20.3442 39.9106C20.7007 40.267 21.2786 40.267 21.6352 39.9106L41.7213 19.8245C42.0716 19.4618 42.0615 18.8838 41.6989 18.5335C41.345 18.1917 40.7841 18.1917 40.4303 18.5335L40.4285 18.5336Z" fill="#607D8B"/>
<path d="M40.4285 2.09952L20.9888 21.541L1.54907 2.09952C1.18641 1.74919 0.608392 1.75929 0.258055 2.12195C-0.0836367 2.4758 -0.0836367 3.03669 0.258055 3.39054L20.3442 23.4767C20.7007 23.8331 21.2786 23.8331 21.6352 23.4767L41.7213 3.39054C42.084 3.0402 42.094 2.46227 41.7437 2.09952C41.3934 1.73686 40.8154 1.72685 40.4527 2.0771C40.4451 2.08446 40.4376 2.09191 40.4303 2.09952H40.4285Z" fill="#607D8B"/>
<path d="M20.9888 40.1792C20.7465 40.1796 20.5139 40.0837 20.3424 39.9125L0.25629 19.8264C-0.0940463 19.4638 -0.0839462 18.8857 0.278716 18.5354C0.632562 18.1937 1.19346 18.1937 1.54722 18.5354L20.9887 37.9751L40.4284 18.5336C40.7911 18.1833 41.3691 18.1934 41.7194 18.556C42.0612 18.9099 42.0612 19.4708 41.7194 19.8246L21.6334 39.9107C21.4626 40.082 21.2308 40.1786 20.9888 40.1792Z" fill="#E3E3E5"/>
<path d="M20.9888 23.7451C20.7465 23.7455 20.5139 23.6496 20.3424 23.4784L0.25629 3.39234C-0.0940463 3.02968 -0.0839462 2.45166 0.278716 2.10132C0.632562 1.75963 1.19346 1.75963 1.54731 2.10132L20.9888 21.541L40.4285 2.09952C40.7789 1.73686 41.3568 1.72685 41.7195 2.0771C42.0823 2.42735 42.0922 3.00537 41.742 3.36812C41.7346 3.37573 41.7272 3.38318 41.7195 3.39054L21.6334 23.4767C21.4626 23.6479 21.2308 23.7445 20.9888 23.7451Z" fill="#E3E3E5"/>
</g>
<defs>
<clipPath id="clip0">
<rect width="42" height="42" fill="white"/>
</clipPath>
</defs>
</svg>
