<svg width="23" height="23" viewBox="0 0 23 23" fill="none" xmlns="http://www.w3.org/2000/svg">
<path d="M21.0991 18.0454L19.4526 15.3026C18.6936 14.0367 18.2921 12.5877 18.2921 11.1109V8.70832C18.2921 5.01013 15.2819 2 11.5838 2C7.88556 2 4.87543 5.01013 4.87543 8.70832V11.1109C4.87543 12.5877 4.47388 14.0367 3.71488 15.3026L2.06844 18.0454C1.97932 18.1929 1.97739 18.3779 2.06175 18.5274C2.14706 18.6779 2.30707 18.7709 2.47957 18.7709H20.6879C20.8604 18.7709 21.0204 18.6779 21.1057 18.5274C21.1901 18.3779 21.1882 18.1929 21.0991 18.0454ZM3.32581 17.8125L4.53618 15.7952C5.38525 14.3807 5.83375 12.7611 5.83375 11.1109V8.70832C5.83375 5.53719 8.41263 2.95832 11.5838 2.95832C14.7549 2.95832 17.3337 5.53719 17.3337 8.70832V11.1109C17.3337 12.7611 17.7823 14.3807 18.6304 15.7952L19.8417 17.8125H3.32581Z" fill="white"/>
<path d="M13.4697 18.0492C13.3346 17.8211 13.0422 17.7464 12.8132 17.8776C12.5842 18.0118 12.5075 18.306 12.6417 18.5341C12.7662 18.7459 12.8343 18.9998 12.8343 19.2499C12.8343 20.0425 12.1894 20.6874 11.3968 20.6874C10.6042 20.6874 9.95931 20.0425 9.95931 19.2499C9.95931 18.9998 10.0274 18.7459 10.1519 18.5341C10.2851 18.305 10.2085 18.0118 9.98037 17.8776C9.74943 17.7463 9.45807 17.8211 9.32393 18.0492C9.11212 18.4114 9 18.8264 9 19.25C9.00004 20.5715 10.0743 21.6458 11.3959 21.6458C12.7174 21.6458 13.7917 20.5715 13.7936 19.25C13.7936 18.8264 13.6815 18.4114 13.4697 18.0492Z" fill="white"/>
</svg>
